<svg width="24" xmlns="http://www.w3.org/2000/svg" height="24" viewBox="0 0 24 24" fill="none"><rect rx="5.738" ry="5.738" width="24" height="24" style="fill:#6342ff;fill-opacity:1"/><path d="M12.08 5c-.05.002-.086.053-.077.1Q12 6.05 12 6.998c.002.038-.007.08.02.111.031.037.079.051.117.077l4.073 2.351c.017.026.004.059.007.087v4.778c-.013.026-.048.032-.07.048l-4.139 2.39c-.03 0-.052-.025-.078-.037l-4.148-2.395c-.016-.024-.004-.056-.007-.084v-3.69c.007-.016.019-.003.028.002l4.077 2.354c.054.028.128-.02.121-.08v-1.974c-.006-.049-.05-.078-.09-.097l-5.024-2.9c-.045-.021-.093.002-.13.027l-.823.476c-.038.03-.04.082-.037.126l.005 6.882c.004.049.048.08.09.099l5.964 3.444c.042.02.09 0 .125-.025l5.979-3.446c.038-.027.046-.078.041-.122V8.501c-.004-.046-.044-.078-.083-.096L12.126 5.01A.1.1 0 0 0 12.08 5" style="fill:#fff;fill-opacity:1"/></svg>